<?xml version="1.0" standalone="no"?>
<!DOCTYPE svg PUBLIC "-//W3C//DTD SVG 20010904//EN"
 "http://www.w3.org/TR/2001/REC-SVG-20010904/DTD/svg10.dtd">
<svg version="1.0" xmlns="http://www.w3.org/2000/svg"
 width="39.000000pt" height="40.000000pt" viewBox="0 0 39.000000 40.000000"
 preserveAspectRatio="xMidYMid meet">

<g transform="translate(0.000000,40.000000) scale(0.100000,-0.100000)"
fill="#000000" stroke="none">
<path d="M3 384 c0 -8 5 -14 11 -14 6 0 5 -5 -2 -12 -8 -8 -12 -64 -12 -185
l0 -173 195 0 196 0 -1 200 -1 199 -193 0 c-158 -1 -193 -4 -193 -15z m227
-131 c0 -4 -10 -17 -22 -30 l-21 -23 23 -25 c35 -37 14 -44 -22 -7 l-32 32 29
30 c28 29 45 38 45 23z"/>
</g>
</svg>
