<?xml version="1.0" standalone="no"?>
<!DOCTYPE svg PUBLIC "-//W3C//DTD SVG 20010904//EN"
 "http://www.w3.org/TR/2001/REC-SVG-20010904/DTD/svg10.dtd">
<svg version="1.0" xmlns="http://www.w3.org/2000/svg"
 width="40.000000pt" height="40.000000pt" viewBox="0 0 40.000000 40.000000"
 preserveAspectRatio="xMidYMid meet">

<g transform="translate(0.000000,40.000000) scale(0.100000,-0.100000)"
fill="#000000" stroke="none">
<path d="M3 384 c0 -8 5 -14 11 -14 6 0 5 -5 -2 -12 -8 -8 -12 -64 -12 -185
l0 -173 200 0 200 0 0 185 c0 130 -3 185 -11 185 -8 0 -8 4 1 15 11 13 -12 14
-187 14 -164 -1 -200 -4 -200 -15z m212 -154 l29 -30 -32 -32 c-36 -37 -57
-30 -22 7 l23 25 -21 23 c-12 13 -22 26 -22 30 0 15 17 6 45 -23z"/>
</g>
</svg>
